<svg
      width="368"
      height="195"
      viewBox="0 0 368 195"
      fill="none"
      xmlns="http://www.w3.org/2000/svg"
    >
      <path
        d="M25.8214 19.0979C24.7894 22.1558 23.5951 25.166 22.458 28.1953C24.455 26.5421 26.4903 24.9176 28.4204 23.1879C31.029 20.8658 33.5516 18.4098 36.0646 16.0495L36.3225 15.887L36.3799 15.7628L35.8448 16.1928C36.0932 13.6986 36.2557 11.1854 36.6187 8.71034C36.8959 6.87556 36.8386 4.17119 37.9661 3.4258C42.3997 0.55896 47.2155 -1.80142 51.9071 -4.32425L51.6491 -4.02802L52.1555 -4.44849C52.3562 -2.79527 52.5664 -1.15163 52.7766 0.501587C54.315 0.138458 56.3216 0.262695 57.3154 -0.683365C65.122 -8.09892 72.5559 -15.8967 80.4581 -23.2167C86.0956 -28.4344 92.2014 -33.1647 98.2881 -37.8759C99.2436 -38.6117 101.155 -38.0957 102.597 -38.153C102.034 -37.0923 101.699 -35.7831 100.878 -34.9995C86.481 -21.3724 72.0431 -7.78358 57.5638 5.76703C54.5348 8.63388 54.2864 8.47145 44.3776 11.0994C41.5111 11.8639 38.9693 14.1573 36.3225 15.8775C34.7364 19.3272 33.0642 22.7387 31.6118 26.2458C31.1723 27.297 31.3634 28.6062 31.2679 29.8007C32.7585 28.9311 34.2108 28.0137 35.7301 27.2206C36.8385 26.6377 38.0138 26.2076 39.1605 25.7107C38.9598 26.8383 39.0458 28.138 38.5012 29.0458C37.6221 30.5079 36.2079 31.6355 35.2142 33.0499C29.9875 40.4463 24.7034 47.8428 19.7443 55.3826C19.1041 56.3382 19.7443 58.1443 19.792 59.549C20.7476 58.9565 22.1044 58.5934 22.7159 57.7334C29.6912 47.8618 36.485 37.8661 43.4889 28.0042C46.1828 24.0832 49.1728 20.3742 52.4327 16.9095C63.5549 5.44214 74.8587 -5.86278 86.2103 -17.0912C87.1658 -18.0469 89.0004 -18.2093 90.4815 -18.6776L81.2129 -0.826706C84.4712 -4.03757 87.7965 -7.1911 90.9115 -10.5453C102.292 -22.7867 116.156 -30.9381 131.999 -35.936L135.076 -38.0957C136.509 -39.5386 137.742 -41.3543 139.452 -42.2717C140.513 -42.8546 142.318 -42.0806 143.771 -41.9181C143.198 -40.6089 142.968 -38.755 141.974 -38.0957C140.302 -37.054 138.152 -36.8056 136.194 -36.1844L132.811 -34.5312C112.392 -20.627 92.6218 -5.92012 75.7856 12.3512C75.5849 12.5806 75.0594 12.5137 74.6389 12.5328L75.0307 12.0932L74.8778 12.227L74.6867 12.399L74.5147 12.5423L76.3302 5.30832C70.8933 10.8891 65.2939 16.3266 60.0863 22.1367C55.261 27.5359 50.8751 33.3365 46.3746 39.032C45.8279 39.9777 45.4222 40.9982 45.1707 42.0613C46.26 41.9466 47.7602 42.2524 48.3717 41.6599C51.7351 38.4013 54.7928 34.8368 58.1275 31.54C59.5013 30.3228 60.9748 29.2232 62.5325 28.2527L62.4369 28.3578L62.9912 27.9373C60.1915 33.241 57.1912 38.4491 54.6495 43.9056C53.2257 46.9254 52.5473 50.2987 51.5345 53.4618C53.5793 51.0536 55.7387 48.6837 57.6402 46.1991C59.6946 43.4565 62.4179 37.8183 63.2969 38.105C69.6894 40.2743 68.5809 34.7222 70.4633 32.2184C71.4188 30.9475 73.1483 30.2403 74.5243 29.2847C74.6485 30.8424 74.7918 32.4096 74.8969 33.9768C74.9734 35.1426 75.0116 36.318 75.0689 37.4839C75.7351 36.9683 76.3524 36.3925 76.9131 35.7638C82.1398 28.8834 87.5193 22.0985 92.4689 15.0174C96.0235 9.95262 99.8551 5.46124 105.846 3.24422L114.58 -2.48946L106.936 4.92609C105.693 6.50285 104.518 8.13696 103.19 9.62773C101.862 11.1185 98.011 12.0072 100.534 14.9696C101.279 15.8488 104.289 14.788 106.267 14.616C108.321 9.53217 111.455 5.59502 117.064 4.26671C116.405 10.5547 111.216 12.5519 106.553 15.0652C104.881 20.0917 103.152 24.7933 96.1955 20.9995C95.4597 20.5982 93.2143 22.3374 92.0199 23.465C85.6561 29.4567 84.4808 37.675 82.8851 45.6735C82.78 46.2278 83.2195 46.9062 83.4011 47.5178C83.8407 46.8054 84.3636 46.1478 84.9586 45.5588C86.0956 44.6701 87.376 43.9725 88.5991 43.1985C88.9335 44.7561 89.2871 46.3042 89.5546 47.8714C89.8222 49.4386 90.061 50.7383 90.3095 52.1908C91.265 51.3307 92.5072 50.6427 93.0614 49.5915C94.9724 45.8646 96.6064 41.9466 98.6321 38.2484C99.1194 37.3788 100.753 37.1399 101.852 36.6143C102.187 37.675 102.961 38.8313 102.808 39.7965C102.12 43.3323 101.174 46.8203 100.304 50.3082C104.126 45.2722 107.948 40.2074 111.828 35.2095C113.61 32.8533 115.548 30.6186 117.628 28.5202C118.325 27.8322 119.787 27.9277 120.905 27.6602C120.888 28.8342 120.731 30.0019 120.437 31.1386C119.099 34.5693 117.57 37.933 116.156 41.3159L118.354 41.918C126.352 28.0138 137.235 16.5081 149.733 6.81821C154.138 3.39711 161.037 1.96368 166.837 1.85857C176.239 1.68657 185.718 3.08176 195.092 4.3336C203.844 5.49947 210.552 10.182 215.282 17.5975C210.103 15.3805 204.771 13.5075 199.879 10.7171C189.865 4.98343 179.03 5.93904 168.548 7.04755C162.556 7.65915 159.384 13.7369 156.747 19.0788C157.433 19.1956 158.138 19.1058 158.773 18.8207C172.503 8.91101 186.272 11.4052 200.471 17.9894C215.96 25.166 227.513 36.4231 236.781 50.4133C242.084 58.3832 247.779 66.0854 256.417 70.8061C258.481 71.9433 261.042 72.1536 263.383 72.7938C263.173 69.927 263.383 66.9932 262.599 64.2888C262.227 62.9128 260.22 61.9954 258.949 60.8678C255.127 54.4174 251.439 47.8618 247.359 41.5739C239.829 29.9632 231.851 18.7061 221.044 9.73283C214.26 4.0947 206.644 -0.387115 198.111 -1.52431C185.355 -3.2253 172.36 -3.14883 159.499 -4.19046C153.641 -4.66826 149.695 -2.0881 145.921 1.82991C143.417 4.41963 140.417 6.51244 137.627 8.82501C137.331 6.34042 138.678 2.2695 133.27 4.69675C132.19 5.18411 131.072 5.6046 129.983 6.05373C130.279 4.93567 130.25 3.51178 130.938 2.77596C132.687 0.864731 134.502 -1.24718 136.757 -2.26968C160.789 -13.2592 185.088 -14.6927 209.864 -4.37202C219.123 -0.549561 224.111 8.09874 231.755 13.584C253.465 29.1605 262.934 52.5157 272.059 76.0907C272.814 78.0019 272.241 81.6715 270.855 82.8755C269.47 84.0796 265.724 84.1561 263.975 83.1145C252.767 76.4252 241.817 69.3823 235.568 57.1982C227.111 40.7043 213.591 29.925 197.433 21.2576C184.056 14.0618 172.589 16.4795 160.942 24.1244C157.511 26.3701 154.253 28.8069 150.842 31.1577C151.358 28.8069 151.883 26.4561 152.399 24.1053C142.586 30.5175 137.732 39.9781 135.152 51.2065C130.308 72.2874 130.164 92.9955 137.063 113.78C143.112 132.042 155.036 146.271 166.971 160.605C167.602 161.37 169.13 161.389 170.239 161.752C170.325 160.672 170.85 159.353 170.42 158.56C169.388 156.648 168.102 154.883 166.598 153.314C154.645 140.795 146.953 125.811 141.936 109.47C139.672 102.103 138.592 94.362 137.159 86.7553C136.977 85.7997 138.114 84.5575 138.659 83.4489C139.71 84.0319 141.105 84.4045 141.716 85.255C142.791 86.6357 143.454 88.2921 143.628 90.0331C143.628 104.606 151.587 116.628 157.311 128.927C170.898 158.13 193.439 179.354 222.286 193.736C222.678 193.927 223.127 194.262 223.49 194.195C224.952 193.937 226.356 193.555 227.847 193.239C227.266 192.264 226.538 191.384 225.688 190.631C221.302 187.812 215.177 187.41 212.922 181.629L221.455 182.661C218.97 180.75 216.61 178.676 213.973 177.042C208.526 173.659 202.946 170.486 197.385 167.295C177.797 156.057 166.455 138.014 157.091 118.377C156.46 117.058 156.795 115.28 156.756 113.685C153.785 111.391 152.581 108.448 153.632 104.692C148.31 98.0029 147.899 90.1573 148.615 82.0824C145.347 79.4831 147.87 76.3488 148.052 73.4246C148.329 76.3774 148.596 79.3398 148.873 82.2926L148.654 81.6619C148.654 81.8053 148.654 81.9486 148.654 82.0824L148.816 82.2162L153.871 104.616C157.463 106.68 158.438 109.7 157.263 113.493C157.607 113.493 157.941 113.57 158.027 113.732C167.707 133.389 186.062 145.201 200.873 160.061C212.568 171.795 228.726 177.462 245.046 179.909C274.371 184.305 303.572 183.081 332.133 174.013C333.174 173.678 334.493 174.194 335.706 174.395C339.184 170.964 342.739 167.6 346.035 164.007C346.685 163.29 346.274 161.599 346.36 160.357C345.628 160.692 344.922 161.082 344.249 161.523C326.677 174.834 305.464 175.541 284.901 178.093C268.485 180.138 251.907 179.641 236.112 173.993C228.029 171.127 219.505 168.04 212.855 162.889C196.133 149.931 181.132 135.473 170.105 116.609C159.413 98.347 155.094 79.4641 155.772 58.8801C156.164 47.0878 162.891 38.3248 173.927 34.9897C186.932 31.0335 195.703 33.9386 204.083 44.9855C199.516 43.6476 194.968 42.2142 190.362 41.0005C174.949 36.9774 163.722 43.8674 160.196 59.291C158.218 67.9967 158.629 76.6259 162.49 84.6626C169.627 99.5128 176.641 114.478 184.772 128.783C193.372 143.949 207.753 153.295 222.554 161.58C234.364 168.193 247.397 171.652 260.66 174.251C265.552 175.207 270.635 176.994 274.486 171.021C275.508 169.445 279.818 169.674 282.627 169.626C287.338 169.559 292.536 173.086 296.406 167.811C284.701 168.451 273.664 165.011 262.504 162.211C260.608 161.907 258.69 161.773 256.771 161.809C258.128 162.765 259.446 163.864 260.86 164.762C262.275 165.66 263.975 166.329 265.38 167.333C266.289 168.135 267.106 169.036 267.816 170.018C266.562 170.295 265.278 170.407 263.994 170.353C248.075 167.486 232.844 162.755 219.2 153.773C199.917 141.082 184.122 125.592 177.281 102.59C176.077 98.5667 173 95.117 170.908 91.3328C164.381 79.4736 161.658 67.0984 166.436 53.9205C166.933 52.5539 168.595 51.6078 169.723 50.4611C170.315 51.7799 171.634 53.2706 171.385 54.4078C168.194 68.4553 172.035 81.0026 179.278 92.8426C187.18 105.772 194.614 119.036 203.29 131.43C210.094 141.13 219.534 148.23 231.469 151.116C233.38 151.575 235.501 151.192 237.527 151.192C236.237 149.749 235.157 147.991 233.609 146.911C225.869 141.512 217.785 136.581 210.256 130.914C203.921 126.136 200.147 119.39 196.879 112.07C193.181 103.804 187.849 96.2828 183.721 88.1792C182.011 84.8154 181.304 80.9261 180.253 77.2183C188.031 85.0352 193.496 94.3716 198.771 104.033C210.332 125.19 227.742 139.094 251.831 143.806C253.512 144.14 255.414 144.102 256.838 144.914C271.457 153.247 287.099 150.915 302.425 148.737C311.025 147.513 319.109 143.806 323.533 135.281C323.743 134.487 323.801 133.66 323.705 132.845C323.007 132.845 322.09 132.568 321.641 132.902C319.558 134.431 317.704 136.285 315.583 137.737C303.161 146.281 289.192 147.829 274.639 146.338C273.521 146.214 272.499 145.115 271.438 144.427C272.728 143.901 273.97 143.051 275.308 142.898C283.458 141.942 291.791 141.894 299.731 140.088C305.397 138.789 310.586 135.31 315.841 132.52C316.491 132.185 316.242 130.169 316.414 128.936C315.325 128.994 313.806 128.602 313.194 129.175C305.703 136.18 296.367 137.718 286.717 138.253C284.226 138.221 281.741 138.004 279.283 137.604C281.452 136.763 283.554 135.587 285.809 135.109C312.63 129.49 318.478 114.009 320.083 92.6802C320.892 80.6016 318.894 68.4997 314.245 57.3224C314.35 61.6323 314.245 65.923 314.742 70.2328C316.089 82.78 316.032 95.0788 312.535 107.502C308.866 120.46 299.941 127.436 287.691 129.146C276.568 130.55 265.323 130.716 254.162 129.643C237.813 128.277 226.127 120.087 221.808 103.45C224.026 104.959 226.139 106.616 228.134 108.41C236.459 116.631 246.963 122.298 258.405 124.741C260.316 125.171 262.561 124.034 264.654 123.623C263.068 122.935 261.462 122.295 259.876 121.54C253.713 118.568 247.387 115.863 241.463 112.471C233.131 107.693 226.949 100.526 220.958 93.0911C214.556 85.1595 209.492 82.7991 207.829 85.9909C204.666 92.1259 209.071 96.4262 212.263 101.042C217.145 108.094 221.751 115.376 226.452 122.505C218.808 116.274 211.087 110.082 203.52 103.765C202.569 102.847 201.93 101.654 201.695 100.354C199.85 90.9983 195.006 83.7738 187.362 78.0306C185.028 76.0597 183.456 73.3353 182.919 70.3283C182.48 67.0117 182.891 63.6381 184.113 60.5238C184.638 59.119 187.581 58.6125 189.426 57.6569C189.999 59.119 191.232 60.6767 191.021 62.0145C189.779 69.9174 195.178 73.8163 200.242 77.9159C200.622 78.0533 201.031 78.0946 201.431 78.0363C201.831 77.9779 202.21 77.8217 202.535 77.5815C202.808 77.3039 203.007 76.9631 203.116 76.5895C203.224 76.2159 203.238 75.8212 203.156 75.4409C202.546 74.3072 201.846 73.2239 201.064 72.2013C199.258 69.2198 194.767 67.1557 197.758 62.5305C200.768 64.6329 204.8 66.095 206.615 68.9523C213.811 80.2667 226.27 87.1949 231.66 100.115C233.083 103.546 237.785 106.097 241.511 107.999C251.898 113.312 262.236 119.074 273.225 122.753C282.302 125.802 292.66 125.84 299.922 117.918C306.353 110.894 310.872 102.628 311.503 92.4317C312.372 78.4415 310.547 64.8718 307.614 51.3403C305.837 43.036 304.26 34.6935 302.597 26.3797C295.049 15.5717 287.061 5.04077 280.105 -6.11125C274.371 -15.352 268.352 -24.201 260.172 -31.4541C258.9 -32.5815 257.776 -33.8659 256.828 -35.2766C256.719 -35.6539 256.706 -36.0522 256.79 -36.4359C256.873 -36.8195 257.05 -37.1764 257.306 -37.4745C257.774 -37.9619 259.102 -38.3537 259.504 -38.0479C263.268 -35.181 266.937 -32.2377 270.578 -29.2276C274.219 -26.2174 277.706 -23.2454 281.261 -20.2448C280.429 -21.7494 279.698 -23.3073 279.073 -24.9082C278.69 -25.9689 278.977 -27.2686 278.958 -28.4535C280.085 -28.3102 281.375 -28.4535 282.312 -27.9661C285.933 -26.0071 289.449 -23.8474 292.994 -21.7547C292.784 -20.9328 292.584 -20.111 292.373 -19.2796C288.647 -18.2189 290.348 -15.849 291.418 -13.7084C295.011 -6.5795 298.651 0.520706 302.273 7.64003L301.919 7.10489L302.234 7.63049C301.418 7.47032 300.618 7.23352 299.846 6.92331C298.431 6.22572 297.103 5.38478 295.737 4.59161C295.794 6.09193 295.46 7.73561 295.966 9.06392C298.221 14.9505 304.136 19.3941 302.836 26.6759C304.948 30.8997 307.318 35.0279 308.999 39.4142C311.016 44.6796 312.43 50.1745 314.073 55.5928C316.739 46.5431 314.933 37.8661 311.847 29.2083C310.922 26.1767 310.173 23.0945 309.601 19.977L309.802 20.3115L309.563 19.8146C317.207 25.3763 319.118 34.359 322.94 42.1951C323.456 43.2367 323.562 45.6162 323.112 45.836C312.468 51.0249 321.727 57.2078 322.3 62.8459C322.415 64.0117 323.571 65.0629 324.498 66.1427C324.23 62.607 323.915 59.0712 323.753 55.5355C323.828 54.3578 324.03 53.1916 324.355 52.057C325.167 52.8597 326.39 53.5095 326.715 54.4651C330.116 64.7284 333.489 75.0108 336.662 85.3506C339.528 94.9067 342.185 104.463 345.08 114.019C345.472 115.319 346.695 116.37 347.536 117.536C347.774 115.959 348.491 114.267 348.166 112.844C345.137 100.736 341.822 88.6953 338.793 76.5781C337.837 72.66 334.082 69.2294 336.251 64.6806L344.755 71.4273L337.99 45.8646L338.248 46.4189L338.162 46.0749L345.749 55.3348C344.115 50.098 342.395 44.8804 340.971 39.5863C340.646 38.3439 341.65 36.7194 342.041 35.3147C342.969 36.0897 343.791 36.9828 344.487 37.9713C350.651 49.7731 356.728 61.6227 362.843 73.4532C363.955 75.7718 365.199 78.0244 366.57 80.1999C366.961 80.7732 368.481 80.6107 369.436 80.7827C369.634 80.0025 369.68 79.1913 369.57 78.3937C368.041 74.4853 366.369 70.6246 364.745 66.7543C364.391 65.6936 364.028 64.6329 363.674 63.5817L366.025 65.9803L376.88 76.4921C374.596 71.714 372.389 66.9359 370.019 62.1579C359.867 41.5 348.157 21.6455 334.99 2.76642C330.508 -3.57886 328.301 -11.5678 325.195 -18.8496C327.107 -17.5595 329.333 -16.4988 330.661 -14.7596C333.506 -10.9299 336.085 -6.91005 338.382 -2.72836C347.364 13.1253 359.68 26.5134 370.678 40.8668C372.828 43.6667 376.555 45.253 379.555 47.4032C381.466 42.1951 376.201 41.3923 374.032 38.9173C369.149 33.3365 364.649 27.7175 363.636 20.0822C365.308 19.633 368.586 20.3497 366.684 17.0242C362.442 9.59906 357.492 2.58484 353.183 -4.80206C351.109 -8.3665 349.819 -12.3801 348.176 -16.193L348.529 -15.7725C348.434 -15.9159 348.348 -16.0592 348.262 -16.2121C353.565 -17.2346 348.52 -21.3438 350.173 -23.4461L354.95 -22.5574C353.039 -26.1887 351.749 -30.4986 348.912 -33.1838C340.608 -41.0581 331.779 -48.3781 323.112 -55.851C327.03 -51.0729 331.034 -46.4382 334.693 -41.5168C339.051 -35.6589 345.854 -30.9572 344.669 -22.2038C344.583 -22.3471 344.497 -22.4905 344.401 -22.6338L344.669 -22.1943C343.016 -23.3888 341.009 -24.2966 339.786 -25.8351C336.28 -30.2501 333.356 -35.1428 329.734 -39.4622C308.635 -64.7241 284.089 -86.8946 256.818 -105.323C250.808 -109.394 243.948 -112.72 242.438 -120.957L242.82 -120.384L242.505 -120.909C246.805 -118.205 250.913 -115.118 255.443 -112.873C268.677 -106.307 279.875 -97.1526 290.424 -86.9753C294.562 -82.9713 299.358 -79.6553 303.878 -76.0527C303.972 -76.3055 303.972 -76.5835 303.878 -76.8363C301.537 -80.2861 299.1 -83.6976 296.74 -87.1187C302.053 -87.6729 305.34 -83.8409 308.579 -80.8785C320.045 -70.4814 331.187 -59.7021 342.424 -49.0566C346.618 -45.0812 350.775 -41.0676 354.941 -37.0636C351.788 -41.9946 348.959 -47.2122 345.128 -51.5507C331.397 -67.0986 318.134 -83.086 300.046 -94.2571C292.545 -98.9014 286.889 -106.537 280.525 -112.949C279.952 -113.532 280.363 -115.09 280.315 -116.198C281.528 -116.093 283.114 -116.456 283.907 -115.816C289.641 -111.219 295.202 -106.336 300.935 -101.701C313.443 -91.6292 325.969 -81.6335 335.334 -68.2549C336.57 -66.472 338.087 -64.9005 339.825 -63.601C350.06 -56.2186 358.867 -47.0353 365.815 -36.4998C366.312 -35.7353 367.668 -35.5442 368.624 -35.0664C368.557 -36.2227 368.891 -37.6274 368.356 -38.5066C362.098 -48.875 356.89 -60.113 345.577 -66.3819C343.298 -67.6542 341.269 -69.3279 339.586 -71.3224C319.596 -95.2127 292.861 -111.152 269.326 -130.848C261.682 -137.202 253.665 -143.06 245.438 -148.632C239.772 -152.454 233.838 -156.41 227.455 -158.694C210.743 -164.657 193.716 -169.732 176.813 -175.159C174.491 -175.905 171.299 -175.991 172.991 -179.938C171.08 -180.511 169.111 -181.6 167.181 -181.581C150.354 -181.457 133.537 -180.998 116.711 -180.941C111.978 -181.075 107.262 -181.577 102.607 -182.441C94.1698 -183.741 86.3632 -182.995 79.063 -177.826C75.2887 -175.169 70.3964 -174.137 66.1348 -172.092C62.1598 -170.181 56.6465 -170.706 54.7259 -165.403C63.5453 -168.269 72.3075 -171.404 81.2034 -174.003C88.2169 -176.077 95.4024 -177.644 102.559 -179.211C103.457 -179.412 104.652 -178.256 105.722 -177.721C104.996 -176.765 104.48 -175.331 103.534 -174.93C99.5398 -173.258 95.3355 -172.063 91.351 -170.372C79.7765 -165.447 68.2497 -160.411 56.7707 -155.264C56.0541 -154.939 55.9012 -153.352 55.4808 -152.397C56.2356 -152.292 57.1147 -151.9 57.7454 -152.139C63.0007 -154.155 68.1892 -156.324 73.435 -158.36C81.5091 -161.494 89.5164 -164.848 97.7339 -167.562C105.11 -169.999 112.707 -171.729 120.227 -173.716C122.719 -174.501 125.278 -175.055 127.871 -175.37C155.935 -177.367 183.205 -174.414 208.832 -161.905C220.48 -156.229 232.252 -150.724 243.479 -144.293C252.079 -139.381 259.914 -133.189 267.988 -127.417C269.316 -126.314 270.37 -124.917 271.065 -123.336C274.4 -116.647 277.592 -109.958 280.84 -103.269C269.202 -109.881 257.592 -116.561 245.878 -123.04C244.511 -123.795 242.543 -123.461 240.842 -123.604L240.556 -124.082L240.737 -123.604C230.503 -128.13 220.928 -134.019 212.272 -141.111C204.953 -147.17 195.713 -148.345 186.712 -149.836C180.291 -150.896 173.707 -151.269 167.449 -152.903C149.343 -157.769 130.207 -157.204 112.42 -151.279C95.5457 -145.736 77.9068 -142.239 62.3605 -133.122C56.0063 -129.386 49.9387 -125.248 43.5463 -121.521C40.2593 -119.61 36.8577 -117.192 33.2076 -116.743C30.8366 -116.471 28.5502 -115.7 26.4995 -114.479C24.4488 -113.259 22.6804 -111.617 21.3114 -109.662C18.999 -106.604 17.2408 -103.116 15.2343 -99.8284C18.2633 -101.596 21.2923 -103.355 24.3117 -105.132C41.5588 -115.262 58.1944 -126.691 76.2442 -135.1C89.0004 -141.054 103.639 -143.003 117.484 -146.567C118.86 -146.912 120.542 -146.032 122.109 -145.612C114.675 -142.993 107.394 -139.744 99.7596 -137.967C86.8983 -134.928 75.0116 -130.102 64.4053 -122.171C62.4063 -120.555 60.581 -118.736 58.9588 -116.743C58.5575 -116.284 58.9588 -115.156 58.9588 -114.335C59.7074 -114.279 60.4598 -114.366 61.1756 -114.593C63.8033 -116.112 66.3354 -117.794 68.9345 -119.371C94.7335 -135.148 123.399 -141.407 153.097 -142.755C169.608 -143.5 185.919 -140.643 200.567 -131.908C201.611 -131.195 202.601 -130.406 203.529 -129.548C202.077 -128.879 200.557 -127.541 199.191 -127.637C194.48 -128.095 189.846 -129.128 185.164 -129.835C171.49 -131.899 157.884 -134.823 144.134 -135.74C125.702 -136.973 107.929 -132.271 91.1981 -124.885C70.1764 -115.521 50.3752 -103.628 32.2329 -89.4695C31.2287 -88.5117 30.4036 -87.3823 29.7964 -86.1344C46.5084 -96.2448 65.5806 -102.208 80.5632 -115.405C83.9186 -118.186 87.7936 -120.271 91.9625 -121.54C113.586 -128.535 135.506 -133.084 158.448 -128.917C165.633 -127.608 173.058 -127.627 180.281 -126.461C185.787 -125.462 191.215 -124.076 196.525 -122.314C199.745 -121.358 202.755 -119.61 205.851 -118.224C202.344 -118.224 198.837 -118.348 195.34 -118.224C194.232 -118.167 193.171 -117.268 192.092 -116.81C192.856 -116.064 193.496 -114.965 194.413 -114.631C204.227 -111.124 214.202 -108.018 223.872 -104.119C227.159 -102.81 229.691 -99.6181 232.567 -97.2769C228.382 -93.1295 224.809 -96.2448 220.9 -98.0318C210.285 -102.896 199.554 -107.531 188.805 -112.127C187.925 -112.509 186.607 -111.879 185.498 -111.716C186.158 -110.684 186.569 -109.107 187.495 -108.696C194.184 -105.696 201.016 -102.963 207.8 -100.096C212.186 -98.2612 216.562 -96.4073 220.977 -94.6107C225.707 -92.6995 230.341 -90.3869 235.224 -89.0204C244.722 -86.3638 252.194 -80.7352 259.465 -74.4281C261.931 -72.2971 265.428 -71.351 268.447 -69.8603C266.488 -72.3449 264.826 -75.1544 262.523 -77.2472C253.866 -85.1215 244.98 -92.7473 236.246 -100.536C235.568 -101.138 235.367 -102.275 234.956 -103.154C235.787 -103.106 236.867 -103.393 237.431 -102.963C259.112 -86.0484 284.681 -73.4438 298.947 -48.2538C295.192 -51.0347 291.351 -53.7199 287.806 -56.7492C285.188 -58.9949 283.344 -62.1771 280.63 -64.2508C279.388 -65.2064 276.884 -64.4993 274.954 -64.5471C275.537 -63.085 275.728 -61.1833 276.77 -60.2181C285.666 -52.019 294.638 -43.8867 303.744 -35.9264C312.076 -28.6447 317.857 -19.595 323.16 -10.0102C329.448 1.35208 336.432 12.3321 343.045 23.5319C343.542 24.6703 343.888 25.8685 344.077 27.0964C342.71 26.5803 341.057 26.3892 340.016 25.4909C337.331 23.1783 334.856 20.6077 332.371 18.104C334.002 25.5515 335.633 32.9893 337.264 40.4176L336.977 39.8634C336.977 40.0354 337.063 40.2169 337.101 40.3985C321.612 37.9999 324.527 37.4552 319.902 22.2418L317.934 18.9641C318.593 20.0535 319.243 21.1524 319.902 22.2514C319.997 22.4138 320.093 22.5763 320.198 22.7388L319.864 22.1272C322.157 25.1278 324.345 28.2144 326.82 31.0431C327.365 31.6546 328.96 31.4348 330.059 31.3871C330.351 30.7031 330.428 29.9464 330.279 29.2178C329.646 27.6309 328.911 26.086 328.081 24.5927C324.766 18.1709 321.144 11.8925 318.211 5.29878C316.175 0.72139 319.166 0.807404 322.214 1.30432C320.399 -1.73453 318.58 -4.77658 316.758 -7.82181C311.895 -4.37204 310.891 -10.2777 308.206 -11.8545C304.222 -14.1862 302.043 -13.5555 301.164 -9.03543C301.699 -8.12759 302.234 -7.21974 302.779 -6.31192C312.095 -1.63896 315.468 6.57932 316.319 16.317L318.287 19.5661C317.628 18.4863 316.969 17.4064 316.319 16.317C316.214 16.1546 316.109 15.9826 316.013 15.8106L316.223 16.2119L316.328 16.4126L302.731 -6.34059L303.104 -5.76724C302.989 -5.94881 302.884 -6.13034 302.779 -6.31192C302.234 -7.21974 301.699 -8.12759 301.164 -9.03543L300.858 -9.53236L301.097 -9.05457C301.109 -9.02058 301.125 -8.98837 301.145 -8.95898L293.157 -19.3083L297.17 -19.6237L293.272 -22.1847V-22.0891C289.45 -26.4563 286.057 -31.2153 281.805 -35.0568C265.94 -49.2112 248.736 -61.789 230.437 -72.6125C227.771 -74.2083 225.726 -76.8076 223.394 -78.9386C226.758 -78.4799 230.15 -78.1073 233.494 -77.4957C234.776 -77.2246 235.987 -76.6874 237.049 -75.9189C249.002 -67.4904 261.032 -59.167 272.766 -50.4422C278.098 -46.4764 281.987 -40.4656 289.086 -39.1373C283.745 -45.3774 279.264 -52.8217 272.785 -57.466C254.363 -70.6821 236.275 -84.787 213.371 -90.1767C208.068 -91.419 203.271 -94.8114 198.197 -97.1335C193.525 -99.2741 188.805 -101.3 184.103 -103.383C186.014 -101.405 188.088 -99.5608 189.836 -97.4202C190.834 -96.0416 191.701 -94.5732 192.426 -93.034C186.311 -94.5152 179.956 -95.4134 174.166 -97.7069C162.65 -102.453 150.039 -103.89 137.751 -101.854C128.368 -100.325 118.641 -100.975 109.038 -100.727C116.188 -106.737 125.344 -109.826 134.674 -109.375C151.329 -108.649 168.337 -108.419 184.486 -102.886C178.303 -109.213 170.153 -108.763 162.241 -109.7C151.109 -111.009 140.044 -112.892 128.951 -114.545C140.302 -119.208 152.103 -116.771 163.779 -116.59C170.669 -116.485 177.568 -116.695 184.466 -116.838C185.116 -116.838 185.756 -117.44 186.378 -117.794C185.67 -118.816 185.049 -120.661 184.237 -120.728C180.845 -121.218 177.407 -121.307 173.994 -120.995C166.735 -119.977 159.337 -120.863 152.523 -123.566C147.258 -125.467 141.549 -125.779 136.108 -124.464C120.122 -120.517 104.413 -115.491 88.5991 -110.866C87.7555 -110.625 86.9365 -110.305 86.153 -109.91C70.3391 -101.912 54.3819 -94.1616 38.7974 -85.714C34.2013 -83.2198 28.6019 -80.2765 30.4079 -72.6507C30.7519 -71.1695 27.6369 -68.6371 25.8118 -66.917C19.792 -61.298 13.5716 -55.8892 7.58053 -50.2415C6.84478 -49.5535 6.97852 -47.9481 6.71097 -46.7631C7.77257 -46.9439 8.80042 -47.2855 9.75908 -47.776C16.7535 -52.8981 23.6428 -58.154 30.6467 -63.2665C31.4589 -63.8495 32.7298 -63.7922 33.7904 -64.0311C33.5133 -62.8843 33.5993 -61.3935 32.9018 -60.6386C28.516 -55.8605 24.0441 -51.0825 19.4003 -46.5911C17.2313 -44.4792 14.1831 -43.2082 12.2625 -40.9434C8.44046 -36.4329 5.18213 -31.5019 1.68492 -26.7334C8.37357 -26.571 11.393 -32.2377 15.6833 -35.7926C30.7041 -48.2347 45.6739 -60.7469 60.5928 -73.3292C63.3925 -75.68 65.9437 -78.3175 68.6001 -80.8403L79.5694 -83.9556L82.3786 -84.9112L80.1905 -83C71.4857 -75.3551 62.8001 -67.6337 54.0475 -60.0652C37.7081 -45.8552 21.2922 -31.7408 5.00061 -17.4735C3.15996 -15.6698 1.5547 -13.6405 0.223008 -11.434C0.0571185 -11.0451 -0.0179182 -10.6235 0.00360655 -10.2013C0.0251313 -9.77902 0.142655 -9.36719 0.34723 -8.99719C0.576555 -8.59583 1.79959 -8.41428 2.40156 -8.61496C5.05791 -9.52278 7.65698 -10.5835 10.2751 -11.5965C9.31958 -9.68523 8.36406 -7.774 7.40854 -5.86278C5.55483 -2.50856 3.58646 0.826523 1.67542 4.13293C11.823 0.176697 19.2188 -7.53511 26.796 -14.8647C37.689 -25.3764 47.913 -36.6718 59.1022 -46.8873C66.7573 -53.893 75.0562 -60.1609 83.8884 -65.6078C93.5769 -71.4099 103.664 -76.5193 114.073 -80.8977C125.659 -85.9325 138.517 -87.2674 150.889 -84.7201C151.654 -84.5672 152.294 -83.7645 152.982 -83.3154C152.189 -82.7324 151.415 -81.6908 150.584 -81.6335C132.993 -80.5536 117.198 -72.7271 100.581 -68.0542C93.9037 -66.186 87.7101 -62.8932 82.4264 -58.4025C62.8956 -41.2014 43.9285 -23.427 24.885 -5.70992C22.3146 -3.31131 20.4036 -0.195999 18.2537 2.66129C19.9163 1.91591 21.7031 1.32344 23.0313 0.167145C42.6386 -17.4416 62.1821 -35.1237 81.662 -52.879C87.6436 -58.3451 94.3704 -61.7949 102.521 -62.1676C103.64 -62.1171 104.751 -61.9538 105.837 -61.6802C105.168 -60.7246 104.7 -59.4632 103.801 -58.9472C90.6163 -51.4767 78.448 -42.3391 67.5968 -31.7599C66.077 -30.1388 64.6872 -28.4006 63.4402 -26.5614C72.7725 -32.7155 82.1143 -38.8633 91.4657 -45.0048C96.5204 -48.3112 101.604 -51.5603 106.754 -54.7043C107.174 -54.9623 108.378 -54.3984 108.847 -53.8824C109.095 -53.6053 108.741 -52.4012 108.311 -51.9712C106.467 -50.1364 104.757 -47.9194 102.511 -46.7727C90.6152 -40.6854 82.3691 -30.5272 73.0719 -21.4393C68.0267 -16.5083 61.6534 -12.9343 55.8725 -8.76785C55.9298 -8.83475 55.9872 -8.91119 56.0541 -8.97809L55.605 -8.58629C57.86 -14.1607 60.1118 -19.7319 62.3605 -25.3C59.7806 -22.8632 57.0956 -20.5219 54.7163 -17.9227C48.5341 -11.2334 42.5239 -4.54404 33.2076 -1.99255C30.6943 -1.27838 28.4621 0.193176 26.8152 2.22171C20.5947 10.4113 14.7469 18.8876 8.80356 27.2875C8.484 27.9339 8.27106 28.6277 8.17295 29.3421C9.20491 29.0554 10.5809 29.1031 11.2115 28.4438C14.7851 24.6978 18.053 20.6555 21.7222 16.9764C22.9931 15.7054 25.0952 15.2563 26.8152 14.4345C26.5945 15.9822 26.2754 17.5143 25.8596 19.0214M300.342 -46.1611C300.342 -46.0464 300.419 -45.9317 300.467 -45.817C300.419 -45.9317 300.381 -46.0464 300.342 -46.1611ZM216.419 -131.048C215.177 -131.048 213.744 -130.656 212.74 -131.144C195.379 -139.697 176.431 -142.783 157.817 -146.701C154.95 -147.313 151.759 -146.701 148.806 -147.122C146.895 -147.418 145.061 -148.622 143.198 -149.425C145.166 -150.218 147.096 -151.565 149.093 -151.69C153.836 -152.13 158.612 -152.063 163.34 -151.489C169.331 -150.533 175.169 -148.622 181.065 -147.179L181.141 -147.447C186.616 -146.08 192.33 -145.287 197.509 -143.175C203.424 -140.757 208.909 -137.241 214.479 -134.03C215.387 -133.495 215.779 -132.061 216.39 -131.048M220.738 -112.624C221.655 -111.657 222.477 -110.604 223.194 -109.48C222.209 -109.568 221.242 -109.803 220.327 -110.178C219.563 -110.56 219.133 -111.602 218.559 -112.347C219.314 -112.462 220.47 -112.949 220.776 -112.624M224.598 -108.935C225.602 -108.419 226.557 -107.808 227.532 -107.234C227.245 -107.024 226.748 -106.585 226.681 -106.642C225.812 -107.416 224.99 -108.228 224.159 -109.04C224.31 -109.032 224.459 -108.996 224.598 -108.935ZM317.819 -35.85C309.133 -46.6197 299.664 -56.7875 290.243 -66.9361C285.892 -71.723 281.093 -76.0815 275.91 -79.9516C262.638 -89.6224 248.983 -98.7676 235.587 -108.257C232.8 -110.26 230.254 -112.578 228 -115.166C227.102 -116.188 227.312 -118.195 227.044 -119.753C228.64 -119.877 230.417 -120.489 231.822 -120.001C233.825 -119.156 235.682 -118.002 237.326 -116.58C248.601 -107.789 259.58 -98.5956 271.132 -90.1767C294.82 -72.9278 314.283 -51.3309 332.524 -28.8549C344.449 -14.1671 353.422 2.9193 363.684 18.9258C363.808 19.1265 363.684 19.4706 363.598 19.8146C358.82 15.0843 353.565 10.7363 349.428 5.48036C338.668 -8.11803 328.76 -22.4045 317.895 -35.8978M334.483 56.6057C334.99 57.2365 335.85 57.8098 335.945 58.517C336.143 60.3036 336.245 62.0995 336.251 63.8971C335.096 62.6192 334.098 61.2076 333.279 59.6924C332.964 58.9948 334.034 57.6665 334.483 56.6248M218.961 98.3279L219.276 99.1783C219.205 99.1328 219.138 99.0816 219.075 99.0254C218.942 98.8821 218.989 98.5667 218.961 98.3279ZM232.338 127.293C238.979 129.634 245.658 131.879 252.242 134.364C256.685 136.036 263.182 134.441 264.348 141.617C259.895 141.13 255.146 141.474 251.047 139.983C243.862 137.374 235.692 135.635 232.338 127.293ZM227.56 123.575L231.392 126.805C229.414 126.595 227.513 126.28 227.522 123.604M207.456 178.542C208.249 178.456 209.367 178.007 209.759 178.351C210.76 179.263 211.667 180.275 212.463 181.371C211.397 181.284 210.348 181.045 209.348 180.664C208.555 180.281 208.077 179.268 207.437 178.542M143.092 60.1128C143.149 65.2218 142.874 70.3291 142.271 75.4026C142.118 76.7023 140.36 77.8204 139.309 79.0244C138.429 77.8873 136.824 76.7596 136.815 75.6033C136.729 70.0894 137.082 64.5756 137.264 59.5968L141.659 49.668C142.166 53.1464 143.045 56.6248 143.092 60.1224M232.166 30.2881C237.154 30.6895 238.3 35.4102 240.833 38.4968C246.938 45.9315 252.891 53.4809 258.902 60.992C258.051 62.9032 258.424 67.0793 254.477 63.7633C243.795 54.7901 237.718 42.7398 232.166 30.3168M217.327 20.0917C216.895 19.607 216.57 19.0374 216.371 18.4194C216.973 18.62 217.575 18.8208 218.149 19.0692C218.512 19.2837 218.849 19.5403 219.152 19.8337C218.531 19.9388 217.633 20.3497 217.346 20.0917M12.1766 -12.5521L11.307 -12.3036C11.369 -12.3752 11.4361 -12.4423 11.5077 -12.5043C11.6606 -12.619 11.9473 -12.5043 12.1766 -12.5521ZM26.3852 -25.5293L27.5222 -25.9689C27.4366 -25.8234 27.334 -25.6887 27.2165 -25.5676C27.0636 -25.4242 26.6718 -25.5676 26.3852 -25.5676M50.4452 -85.9146L53.0824 -86.7651L51.0185 -84.9972C47.1008 -81.9202 43.2501 -78.7571 39.2082 -75.8711C38.654 -75.4793 36.5996 -76.1578 36.2079 -76.8745C35.8161 -77.5912 36.2079 -79.7414 36.8481 -80.0089C41.3008 -82.1495 45.8969 -83.9843 50.4452 -85.9146ZM55.4043 -88.1125L54.3723 -87.6539C54.4508 -87.7735 54.5405 -87.8854 54.6399 -87.9883C54.8023 -88.1316 55.1368 -88.0839 55.4043 -88.1125ZM115.726 -111.716C112.86 -110.493 109.993 -109.251 107.079 -108.085C92.0867 -102.055 79.8561 -92.1166 68.4758 -80.955C61.0801 -76.8745 53.6939 -72.7749 46.26 -68.7709C45.6198 -68.4173 44.6452 -68.704 43.8234 -68.6944C44.005 -69.7361 43.8234 -71.1886 44.4254 -71.762C51.6969 -78.5373 59.2169 -85.0259 66.4024 -91.8299C78.1362 -103.001 92.6027 -108.458 107.948 -112.003C110.385 -112.567 113.089 -111.946 115.717 -111.668M105.005 -100.335C106.027 -100.469 107.061 -100.469 108.082 -100.335C107.53 -99.4864 106.811 -98.7583 105.97 -98.1943C105.321 -97.8885 104.212 -98.5383 103.305 -98.7676C103.868 -99.3123 104.356 -100.211 105.005 -100.344M124.775 -114.344L127.403 -114.258L125.444 -112.987C125.224 -113.436 125.004 -113.895 124.775 -114.344ZM193.573 -91.3616L192.999 -92.5179C193.187 -92.4305 193.356 -92.3071 193.496 -92.1548C193.639 -91.9923 193.553 -91.6292 193.573 -91.3616ZM239.38 -54.3602C240.995 -52.449 242.705 -50.6524 244.158 -48.6743C244.895 -47.5359 245.534 -46.3371 246.069 -45.0908C244.827 -45.2723 243.432 -45.1577 242.361 -45.6928C227.78 -53.0033 213.17 -60.2659 198.732 -67.8631C189.712 -72.6411 180.329 -75.3551 170.181 -73.807C157.903 -71.8958 145.711 -69.4112 133.442 -67.3948C128.74 -66.6208 123.944 -66.3819 119.185 -65.9423C120.599 -67.0986 121.928 -68.4651 123.542 -69.1149C140.522 -75.9667 158.495 -77.4957 176.507 -78.5851C186.011 -79.1359 195.483 -77.0562 203.883 -72.5743C213.438 -67.6528 223.069 -63.0754 232.672 -58.3451C232.328 -59.0905 232.195 -60.1608 231.612 -60.5526C209.96 -74.8868 187.658 -87.0996 161.028 -90.1767C140.169 -92.5657 120.896 -89.8135 101.957 -80.7065C84.5668 -72.3544 69.804 -60.5813 54.9839 -48.6648C47.3397 -42.5488 39.4853 -36.7865 31.7265 -30.8617L28.172 -26.9532C28.3726 -29.0269 28.5446 -31.1197 31.7074 -30.8903C35.4244 -40.1311 43.059 -46.1802 50.4643 -51.8374C64.5678 -62.6454 79.6459 -72.1633 93.9213 -82.7611C105.54 -91.3616 118.612 -95.6141 132.649 -96.3882C144.201 -97.0284 156.269 -97.8216 167.353 -95.2892C180.253 -92.3459 192.684 -86.5836 204.676 -80.7161C219.773 -73.3292 234.297 -64.8242 248.869 -56.3479C253.646 -53.5575 257.726 -49.4483 261.969 -45.7597C262.714 -45.1098 262.657 -43.5331 262.972 -42.3864C261.845 -42.5393 260.555 -42.3864 259.628 -42.8928C252.834 -46.6484 246.117 -50.5378 239.371 -54.3602M163.455 -67.4044C163.732 -67.347 163.913 -66.8214 164.143 -66.4965L162.7 -65.9805L162.451 -66.8597C162.786 -67.0604 163.168 -67.4713 163.407 -67.4044M172.436 -68.2166C176.259 -68.0733 180.138 -67.4999 185.011 -66.9743L194.098 -61.8809C190.649 -61.8809 187.18 -61.6707 183.731 -61.8809C179.884 -62.1144 176.056 -62.5771 172.264 -63.2665C171.718 -63.4865 171.238 -63.8426 170.868 -64.3009C170.498 -64.7592 170.252 -65.3046 170.153 -65.885C170.153 -66.7163 171.672 -68.2453 172.475 -68.2166M237.88 96.7893C239.027 97.1047 240.45 97.076 241.272 97.7449C251.391 106.345 263.746 108.257 276.311 109.642C278.303 109.934 280.237 110.534 282.044 111.42C287.051 113.704 290.577 113.188 292.221 108.486C297.954 92.0112 303.505 75.1542 298.976 57.5614C295.632 44.5937 291.647 31.4922 285.656 19.6044C280.143 8.653 273.674 -2.3748 261.386 -8.29962C256.389 -10.7269 251.687 -15.1227 250.646 -21.5922L254.936 -20.7513C250.856 -25.2426 246.757 -29.7149 242.725 -34.235C240.651 -36.5571 238.692 -39.0131 236.686 -41.3639C239.448 -41.3891 242.182 -40.8153 244.701 -39.6819C247.22 -38.5486 249.463 -36.8826 251.276 -34.7988C262.112 -22.5478 275.164 -12.0934 281.557 3.7507C283.143 7.66873 286.822 10.6884 288.867 14.4822C292.746 21.6971 297.371 28.8164 299.435 36.6047C302.75 49.1041 304.508 62.0623 306.42 74.8962C307.929 84.9875 305.712 94.8208 302.483 104.358C298.919 114.87 293.52 118.434 282.369 118.692C271.62 118.931 262.618 113.474 253.149 109.776C248.066 107.798 243.594 104.042 239.113 100.793C238.214 100.144 238.281 98.1558 237.899 96.7797M272.479 38.8886C270.702 34.6266 269.517 30.1161 268.065 25.7203C272.976 25.6056 274.333 29.7434 275.996 32.983C283.468 47.5752 285.131 63.3046 284.28 79.4067C284.154 81.5745 283.437 83.6664 282.207 85.4557C281.06 87.0134 278.929 87.8543 277.238 89.0106C277.181 87.3383 276.617 85.494 277.123 84.0223C282.646 68.2164 278.595 53.4904 272.479 38.8886ZM252.691 -7.5829C268.084 -1.90654 275.852 9.95264 279.082 25.4909L279.942 27.6028L278.537 25.8254C276.416 23.809 273.961 22.0029 272.25 19.7286C265.609 10.7171 259.188 1.5719 252.691 -7.5829ZM256.79 10.4878L256.503 9.81885H256.56C256.704 9.96219 256.713 10.2298 256.79 10.44M255.701 8.76767C252.614 7.64961 249.738 6.33084 249.786 2.29814C253.608 2.79507 255.462 5.05034 255.701 8.76767ZM154.148 -35.3531C157.97 -42.2813 165.194 -41.4976 171.175 -41.5836C195.646 -41.9086 217.996 -33.7954 239.017 -22.0414C242.705 -19.9772 244.932 -15.2947 247.837 -11.8163C250.178 -11.5774 252.414 -11.2238 252.108 -8.11804C249.891 -8.35693 247.473 -8.33784 247.722 -11.7398C244.358 -13.4408 240.842 -14.9124 237.632 -16.8906C221.732 -26.6952 204.714 -33.308 185.938 -34.4548C175.37 -35.095 164.764 -35.0855 154.176 -35.3531M168.786 -29.39C170.908 -29.0747 173.124 -28.4344 175.169 -28.7689C190.276 -31.2057 204.341 -26.5518 218.254 -22.0796C231.316 -17.894 242.801 -10.9562 249.356 1.96367C247.875 1.52409 246.184 1.33298 245.123 0.415588C225.821 -16.3746 203.3 -24.0672 177.873 -24.0577C159.948 -24.0577 143.264 -19.0312 126.973 -12.1603L124.527 -11.1569L126.552 -12.877C138.019 -25.1471 151.568 -31.8937 168.786 -29.3805M284.901 39.3378L285.245 40.4081C285.137 40.3264 285.035 40.237 284.939 40.1405C284.806 39.9685 284.939 39.6149 284.939 39.3378M146.819 36.7672C147.975 34.9324 149.389 33.2505 150.717 31.5209C150.34 33.481 149.839 35.4152 149.217 37.3119C148.931 38.0955 147.774 38.5446 147.02 39.1467C146.924 38.3439 146.475 37.3119 146.819 36.7672ZM270.081 90.4536C266.823 95.0883 263.077 91.2085 259.628 90.8741C257.583 90.6829 255.605 89.4024 253.665 88.4659C236.772 80.2763 224.856 66.4868 213.123 52.4966L212.702 52.0092L221.426 53.1942C219.515 51.4932 217.604 49.7444 215.645 48.1008C210.008 43.4087 204.723 38.191 198.618 34.2157C180.176 22.1845 157.205 30.8615 151.033 51.8945C149.695 56.4433 148.816 61.1353 147.717 65.7509C146.272 55.1053 148.697 44.2948 154.549 35.286C161.056 24.908 170.793 21.3531 182.345 22.8152C187.454 23.5905 192.402 25.1947 196.993 27.5646C210.691 34.198 222.272 44.5154 230.437 57.3607C238.243 69.6403 248.496 79.2538 261.701 85.6182C264.568 87.0134 267.253 88.829 270.014 90.4536M289.832 74.0839C290.08 65.3018 289.774 56.5006 289.698 47.709C290.854 49.2188 292.278 50.5758 292.947 52.3342C298.422 66.3243 295.813 80.5725 293.52 94.6487C292.211 102.647 290.701 103.001 281.987 102.294C278.108 101.975 274.208 102.029 270.339 102.456C262.104 103.372 253.796 101.57 246.68 97.3244C234.307 90.2814 223.303 81.069 214.193 70.1277C208.412 63.2472 201.093 57.6091 194.127 51.7608C190.133 48.3779 185.737 48.8939 183.014 53.5095C180.491 57.7429 178.752 62.435 176.717 66.955C173.105 61.5367 176.306 56.3573 177.931 51.4263C180.214 44.5172 185.862 41.9657 192.388 45.0428C197.885 47.5354 202.979 50.8335 207.504 54.8283C215.148 61.8329 222.219 69.497 229.175 77.2183C238.128 87.1663 248.419 94.687 261.997 96.5408C282.541 99.3408 289.335 91.6194 289.841 74.0839M120.857 1.61966C124.498 -5.95836 131.053 -9.04498 139.137 -9.78081C140.427 -10.832 141.554 -12.3036 143.026 -12.8674C161.649 -20.0345 181.132 -22.242 200.357 -17.5882C214.441 -14.1767 228.42 -8.89207 237.918 3.93227C242.228 9.75197 248.19 14.444 253.627 19.3463C266.154 30.7277 271.447 45.6735 274.734 61.6227C274.954 62.7121 274.152 64.0117 273.827 65.2063C272.935 64.2375 272.126 63.1954 271.409 62.0909C264.768 49.9451 259.57 36.6908 251.21 25.8828C242.371 14.4154 231.784 3.37801 219.725 -4.38159C198.14 -18.2858 173.793 -17.7602 149.504 -11.2716C146.227 -10.3924 142.882 -9.75212 139.576 -8.99719C133.346 -5.46141 127.119 -1.92249 120.896 1.61966M117.007 16.7853L118.306 14.3102L119.195 15.7819L117.007 16.7853ZM116.156 17.7409L115.201 20.3211L114.006 19.3177L116.195 17.7409M144.908 -32.5913C147.325 -35.5442 150.106 -37.1974 153.89 -35.2766L145.453 -31.6166C128.374 -18.5693 111.296 -5.53151 94.2176 7.49669C93.1247 8.15047 91.9652 8.68547 90.7586 9.09259C91.1503 7.63049 91.2077 5.94862 91.9912 4.73499C99.4442 -6.86617 110.939 -14.0237 122.014 -21.3724C129.037 -26.0358 137.235 -28.9122 144.946 -32.5913M155.724 -59.3485C157.005 -59.3007 158.285 -58.6223 159.546 -58.6796C174.462 -59.4632 189.359 -53.2231 204.313 -58.5076C205.557 -58.8326 206.876 -58.7108 208.039 -58.1636C217.843 -53.5957 228.44 -50.3466 235.959 -41.9181C228.487 -44.5078 221.168 -47.9194 213.476 -49.3337C197.041 -52.3534 180.482 -55.1821 163.617 -54.064C161.507 -53.9821 159.421 -53.5893 157.425 -52.8981C156.67 -52.6114 156.24 -50.9869 156.087 -49.8688C156.03 -49.5057 157.282 -48.5788 157.999 -48.5501C167.802 -48.1201 177.644 -48.2634 187.39 -47.346C207.122 -45.5017 227.016 -43.7529 242.811 -29.5047C243.795 -28.5075 244.666 -27.4051 245.41 -26.2174C236.036 -29.7532 226.681 -33.3367 217.269 -36.8056C206.759 -40.6758 196.315 -44.0491 184.724 -44.4505C175.169 -44.785 165.882 -45.0047 156.489 -43.4375C152.906 -42.8451 143.809 -47.776 143.379 -50.0695C142.748 -53.4524 150.784 -59.5205 155.801 -59.3581M132.113 -57.5711C131.976 -57.8489 131.905 -58.1547 131.905 -58.4646C131.905 -58.7745 131.976 -59.0803 132.113 -59.3581C135.41 -60.7915 138.802 -62.0816 142.108 -63.4099C142.71 -61.7662 143.341 -60.9253 143.14 -60.4188C142.185 -57.9438 134.053 -55.8605 132.104 -57.552M97.5619 -25.0611C96.7879 -21.4871 95.0106 -18.9738 90.8732 -18.9547C91.7332 -22.5191 93.7876 -24.6884 97.5619 -25.0611ZM122.94 -45.989C124.852 -46.9447 127.46 -46.4955 129.801 -46.5815C121.555 -38.0861 112.822 -30.2883 101.03 -26.9723L99.6067 -26.313L100.887 -27.2017C106.018 -36.0602 114.178 -41.469 122.94 -45.989Z"
        fill="#C0B8AC"
        fill-opacity="0.15"
      />
    </svg>